#!OML:ASF X:\für Bonn\!DataBase\2005_08_11_Bastian_Final\c3d\Bastian.ASF
:FULLY-SPECIFIED
:DEGREES
432
root 15.7444 17.3118 -0.370023 365.943 -74.9511 -11.647
lowerback 21.9008 -0.785931 2.2583
upperback 13.7245 -1.65473 -0.0187839
thorax 2.73778 -1.11771 -1.00462
lowerneck -8.42843 -8.38124 -2.21063
upperneck -2.90175 -11.4013 14.8068
head 1.54481 -5.60422 4.28064
rclavicle -6.75868e-015 2.74323e-014
rhumerus -19.9809 18.8103 -83.6245
rradius 26.1116
rwrist -6.93449
rhand -23.1928 2.87315
rfingers 7.12502
rthumb 3.25687 -27.0817
lclavicle -6.75868e-015 2.74323e-014
lhumerus -4.26442 -19.7852 84.4656
lradius 37.7066
lwrist 25.7086
lhand -14.7119 -9.92805
lfingers 7.12502
lthumb 11.4426 19.7397
rfemur -35.5741 -5.55975 23.1654
rtibia 39.8905
rfoot -20.5906 -10.3202
rtoes 4.61703
lfemur 26.9532 1.32223 -15.6726
ltibia -4.77083e-014
lfoot -9.10977 -9.47035
ltoes -15.1547
433
root 15.6017 17.2939 -0.365868 365.951 -74.7705 -11.6482
lowerback 21.4986 -0.940421 2.33226
upperback 13.6038 -1.82706 0.0368969
thorax 2.79346 -1.19272 -0.961377
lowerneck -8.28911 -8.39058 -2.33353
upperneck -2.91432 -11.396 14.784
head 1.52354 -5.60519 4.29926
rclavicle 4.57205e-015 1.31198e-014
rhumerus -20.7409 18.0548 -83.8447
rradius 25.9517
rwrist -6.36625
rhand -23.0366 3.11068
rfingers 7.12502
rthumb 3.40771 -26.8418
lclavicle 4.57205e-015 1.31198e-014
lhumerus -4.26685 -20.0078 84.4815
lradius 38.1001
lwrist 25.3993
lhand -14.698 -10.0513
lfingers 7.12502
lthumb 11.456 19.6156
rfemur -35.4767 -5.24102 22.89
rtibia 38.7588
rfoot -20.6535 -10.7646
rtoes 3.99717
lfemur 27.4233 1.06134 -15.5365
ltibia 6.36111e-015
lfoot -9.19557 -9.50772
ltoes -15.7169
434
root 15.456 17.2732 -0.361632 366.019 -74.5627 -11.7355
lowerback 21.1035 -1.09718 2.45731
upperback 13.5011 -1.99756 0.104379
thorax 2.86689 -1.26472 -0.93652
lowerneck -8.16619 -8.41599 -2.40616
upperneck -2.94628 -11.4124 14.6911
head 1.49315 -5.61838 4.28802
rclavicle -2.38542e-015 6.75868e-015
rhumerus -21.4522 17.2292 -84.0233
rradius 25.6881
rwrist -5.72021
rhand -22.9108 3.47816
rfingers 7.12502
rthumb 3.52922 -26.4724
lclavicle -2.38542e-015 6.75868e-015
lhumerus -4.26443 -20.2261 84.5089
lradius 38.4742
lwrist 25.0723
lhand -14.6331 -10.1769
lfingers 7.12502
lthumb 11.5186 19.4866
rfemur -35.3165 -4.88945 22.6152
rtibia 37.6905
rfoot -20.8036 -11.1991
rtoes 3.48391
lfemur 27.9304 0.773561 -15.3772
ltibia -1.39944e-013
lfoot -9.31331 -9.55254
ltoes -16.3719
435
root 15.3074 17.2497 -0.358503 365.955 -74.3347 -11.6941
lowerback 20.7291 -1.25112 2.5681
upperback 13.3939 -2.16725 0.144097
thorax 2.92504 -1.336 -0.934094
lowerneck -8.02941 -8.43311 -2.4068
upperneck -2.99834 -11.4223 14.5888
head 1.4492 -5.63088 4.26456
rclavicle 1.98785e-014 -1.35174e-014
rhumerus -22.2136 16.4264 -84.2552
rradius 25.4683
rwrist -5.17838
rhand -22.7808 3.81541
rfingers 7.12502
rthumb 3.65473 -26.133
lclavicle 1.98785e-014 -1.35174e-014
lhumerus -4.29231 -20.4257 84.5315
lradius 38.7878
lwrist 24.6709
lhand -14.6338 -10.3812
lfingers 7.12502
lthumb 11.5179 19.2823
rfemur -35.1315 -4.59506 22.3235
rtibia 36.7083
rfoot -20.9683 -11.6423
rtoes 2.71368
lfemur 28.4445 0.456151 -15.2393
ltibia 3.49861e-014
lfoot -9.36949 -9.61045
ltoes -16.7873
436
root 15.1552 17.2269 -0.356383 365.816 -74.1182 -11.5723
lowerback 20.3258 -1.39616 2.64303
upperback 13.3193 -2.33742 0.201564
thorax 3.0364 -1.41118 -0.895864
lowerneck -7.92959 -8.45585 -2.47795
upperneck -3.0911 -11.4305 14.498
head 1.404 -5.64246 4.25489
rclavicle 5.4467e-014 -5.56597e-014
rhumerus -22.9419 15.7487 -84.4616
rradius 25.3261
rwrist -4.79525
rhand -22.6765 3.97114
rfingers 7.12502
rthumb 3.75549 -25.9755
lclavicle 5.4467e-014 -5.56597e-014
lhumerus -4.2563 -20.3477 84.6389
lradius 38.9634
lwrist 24.0477
lhand -14.5817 -10.6685
lfingers 7.12502
lthumb 11.5681 18.9923
rfemur -34.9187 -4.25139 22.0061
rtibia 35.8314
rfoot -21.1739 -12.0811
rtoes 2.18321
lfemur 28.9723 0.147709 -15.1284
ltibia -9.54166e-015
lfoot -9.46267 -9.62982
ltoes -17.7046
437
root 15.0021 17.2031 -0.355246 365.634 -73.8715 -11.4215
lowerback 19.9649 -1.5433 2.7276
upperback 13.2318 -2.50759 0.247621
thorax 3.11233 -1.48543 -0.874904
lowerneck -7.82124 -8.48008 -2.47364
upperneck -3.18155 -11.4469 14.3762
head 1.35222 -5.65921 4.22449
rclavicle -1.23246e-014 2.14687e-014
rhumerus -23.7612 15.3829 -84.7585
rradius 25.2708
rwrist -4.71909
rhand -22.6006 3.98234
rfingers 7.12502
rthumb 3.8288 -25.963
lclavicle -1.23246e-014 2.14687e-014
lhumerus -4.26689 -20.424 84.7064
lradius 39.175
lwrist 23.6431
lhand -14.5716 -10.7976
lfingers 7.12502
lthumb 11.5779 18.8626
rfemur -34.6713 -3.93355 21.6946
rtibia 35.0734
rfoot -21.3838 -12.5105
rtoes 1.88067
lfemur 29.5133 -0.197793 -15.0153
ltibia 4.13472e-014
lfoot -9.45719 -9.67608
ltoes -17.9884
438
root 14.8456 17.1797 -0.355305 365.359 -73.6195 -11.1656
lowerback 19.5943 -1.684 2.78056
upperback 13.1518 -2.67654 0.299043
thorax 3.20343 -1.56137 -0.832739
lowerneck -7.72492 -8.51195 -2.53603
upperneck -3.28773 -11.4688 14.3121
head 1.30617 -5.67796 4.22081
rclavicle 3.39922e-014 -3.35946e-014
rhumerus -24.5823 15.1271 -85.0607
rradius 25.2959
rwrist -4.80573
rhand -22.5404 3.85832
rfingers 7.12502
rthumb 3.88693 -26.086
lclavicle 3.39922e-014 -3.35946e-014
lhumerus -4.30668 -20.5017 84.8168
lradius 39.46
lwrist 23.3288
lhand -14.5987 -10.7639
lfingers 7.12502
lthumb 11.5518 18.8977
rfemur -34.4224 -3.67409 21.3983
rtibia 34.4446
rfoot -21.5586 -12.9308
rtoes 1.45831
lfemur 30.0324 -0.550636 -14.9354
ltibia 8.26944e-014
lfoot -9.43687 -9.72618
ltoes -18.6788
439
root 14.6881 17.1559 -0.355755 365.153 -73.3291 -10.9809
lowerback 19.2519 -1.8315 2.88901
upperback 13.0596 -2.8448 0.338997
thorax 3.26543 -1.6329 -0.833863
lowerneck -7.61792 -8.55181 -2.54683
upperneck -3.38842 -11.5179 13.8784
head 1.33332 -5.72107 4.55847
rclavicle 3.97569e-016 3.97569e-015
rhumerus -25.3738 14.8178 -85.3797
rradius 25.2294
rwrist -4.75698
rhand -22.4604 3.73166
rfingers 7.12502
rthumb 3.96419 -26.2112
lclavicle 3.97569e-016 3.97569e-015
lhumerus -4.34358 -20.6314 84.9031
lradius 39.7105
lwrist 23.1543
lhand -14.5849 -10.7014
lfingers 7.12502
lthumb 11.5651 18.9595
rfemur -34.1308 -3.45635 21.1535
rtibia 33.9304
rfoot -21.7195 -13.3206
rtoes 1.51489
lfemur 30.5399 -0.943955 -14.827
ltibia -6.67916e-014
lfoot -9.37713 -9.7601
ltoes -19.3457
